{
	"patcher" : 	{
		"fileversion" : 1,
		"rect" : [ 890.0, 44.0, 238.0, 565.0 ],
		"bglocked" : 0,
		"defrect" : [ 890.0, 44.0, 238.0, 565.0 ],
		"openrect" : [ 0.0, 0.0, 0.0, 0.0 ],
		"openinpresentation" : 1,
		"default_fontsize" : 12.0,
		"default_fontface" : 0,
		"default_fontname" : "Arial",
		"gridonopen" : 0,
		"gridsize" : [ 15.0, 15.0 ],
		"gridsnaponopen" : 0,
		"toolbarvisible" : 1,
		"boxanimatetime" : 200,
		"imprint" : 0,
		"metadata" : [  ],
		"boxes" : [ 			{
				"box" : 				{
					"maxclass" : "newobj",
					"text" : "t b b",
					"outlettype" : [ "bang", "bang" ],
					"fontname" : "Arial",
					"id" : "obj-51",
					"patching_rect" : [ 179.0, 229.0, 34.0, 20.0 ],
					"numinlets" : 1,
					"numoutlets" : 2,
					"fontsize" : 12.0
				}

			}
, 			{
				"box" : 				{
					"maxclass" : "newobj",
					"text" : "s writeFX",
					"fontname" : "Arial",
					"id" : "obj-50",
					"patching_rect" : [ 65.0, 509.0, 61.0, 20.0 ],
					"numinlets" : 1,
					"numoutlets" : 0,
					"fontsize" : 12.0
				}

			}
, 			{
				"box" : 				{
					"maxclass" : "newobj",
					"varname" : "storefxFX",
					"text" : "sel 1.",
					"outlettype" : [ "bang", "" ],
					"fontname" : "Arial",
					"id" : "obj-45",
					"patching_rect" : [ 195.0, 142.0, 39.0, 20.0 ],
					"numinlets" : 1,
					"numoutlets" : 2,
					"fontsize" : 12.0
				}

			}
, 			{
				"box" : 				{
					"maxclass" : "message",
					"text" : "read",
					"outlettype" : [ "" ],
					"fontname" : "Arial",
					"id" : "obj-43",
					"patching_rect" : [ 199.0, 441.0, 35.0, 18.0 ],
					"numinlets" : 2,
					"numoutlets" : 1,
					"fontsize" : 12.0
				}

			}
, 			{
				"box" : 				{
					"maxclass" : "newobj",
					"text" : "p tabToSwitchosc",
					"outlettype" : [ "" ],
					"fontname" : "Arial",
					"id" : "obj-49",
					"patching_rect" : [ 95.0, 671.0, 105.0, 20.0 ],
					"numinlets" : 1,
					"numoutlets" : 1,
					"fontsize" : 12.0,
					"patcher" : 					{
						"fileversion" : 1,
						"rect" : [ 17.0, 507.0, 640.0, 480.0 ],
						"bglocked" : 0,
						"defrect" : [ 17.0, 507.0, 640.0, 480.0 ],
						"openrect" : [ 0.0, 0.0, 0.0, 0.0 ],
						"openinpresentation" : 0,
						"default_fontsize" : 12.0,
						"default_fontface" : 0,
						"default_fontname" : "Arial",
						"gridonopen" : 0,
						"gridsize" : [ 15.0, 15.0 ],
						"gridsnaponopen" : 0,
						"toolbarvisible" : 1,
						"boxanimatetime" : 200,
						"imprint" : 0,
						"metadata" : [  ],
						"boxes" : [ 							{
								"box" : 								{
									"maxclass" : "newobj",
									"text" : "+ 1",
									"outlettype" : [ "int" ],
									"fontname" : "Arial",
									"id" : "obj-105",
									"patching_rect" : [ 51.0, 100.0, 32.5, 20.0 ],
									"numinlets" : 2,
									"numoutlets" : 1,
									"fontsize" : 12.0
								}

							}
, 							{
								"box" : 								{
									"maxclass" : "message",
									"text" : "0 0 0 0 0 0 0 0",
									"outlettype" : [ "" ],
									"fontname" : "Arial",
									"id" : "obj-101",
									"patching_rect" : [ 50.0, 174.0, 87.0, 18.0 ],
									"numinlets" : 2,
									"numoutlets" : 1,
									"fontsize" : 12.0
								}

							}
, 							{
								"box" : 								{
									"maxclass" : "newobj",
									"text" : "t b l",
									"outlettype" : [ "bang", "" ],
									"fontname" : "Arial",
									"id" : "obj-100",
									"patching_rect" : [ 51.0, 150.0, 32.5, 20.0 ],
									"numinlets" : 1,
									"numoutlets" : 2,
									"fontsize" : 12.0
								}

							}
, 							{
								"box" : 								{
									"maxclass" : "message",
									"text" : "$1 1",
									"outlettype" : [ "" ],
									"fontname" : "Arial",
									"id" : "obj-99",
									"patching_rect" : [ 51.0, 124.0, 34.0, 18.0 ],
									"numinlets" : 2,
									"numoutlets" : 1,
									"fontsize" : 12.0
								}

							}
, 							{
								"box" : 								{
									"maxclass" : "newobj",
									"text" : "zl nth 1",
									"outlettype" : [ "", "" ],
									"fontname" : "Arial",
									"id" : "obj-98",
									"patching_rect" : [ 50.0, 204.0, 49.0, 20.0 ],
									"numinlets" : 2,
									"numoutlets" : 2,
									"fontsize" : 12.0
								}

							}
, 							{
								"box" : 								{
									"maxclass" : "inlet",
									"outlettype" : [ "" ],
									"id" : "obj-106",
									"patching_rect" : [ 56.0, 40.0, 25.0, 25.0 ],
									"numinlets" : 0,
									"numoutlets" : 1,
									"comment" : ""
								}

							}
, 							{
								"box" : 								{
									"maxclass" : "outlet",
									"id" : "obj-110",
									"patching_rect" : [ 85.0, 284.0, 25.0, 25.0 ],
									"numinlets" : 1,
									"numoutlets" : 0,
									"comment" : ""
								}

							}
 ],
						"lines" : [ 							{
								"patchline" : 								{
									"source" : [ "obj-101", 0 ],
									"destination" : [ "obj-98", 0 ],
									"hidden" : 0,
									"midpoints" : [  ]
								}

							}
, 							{
								"patchline" : 								{
									"source" : [ "obj-100", 1 ],
									"destination" : [ "obj-98", 1 ],
									"hidden" : 0,
									"midpoints" : [  ]
								}

							}
, 							{
								"patchline" : 								{
									"source" : [ "obj-100", 0 ],
									"destination" : [ "obj-101", 0 ],
									"hidden" : 0,
									"midpoints" : [  ]
								}

							}
, 							{
								"patchline" : 								{
									"source" : [ "obj-99", 0 ],
									"destination" : [ "obj-100", 0 ],
									"hidden" : 0,
									"midpoints" : [  ]
								}

							}
, 							{
								"patchline" : 								{
									"source" : [ "obj-105", 0 ],
									"destination" : [ "obj-99", 0 ],
									"hidden" : 0,
									"midpoints" : [  ]
								}

							}
, 							{
								"patchline" : 								{
									"source" : [ "obj-106", 0 ],
									"destination" : [ "obj-105", 0 ],
									"hidden" : 0,
									"midpoints" : [  ]
								}

							}
, 							{
								"patchline" : 								{
									"source" : [ "obj-98", 1 ],
									"destination" : [ "obj-110", 0 ],
									"hidden" : 0,
									"midpoints" : [  ]
								}

							}
 ]
					}
,
					"saved_object_attributes" : 					{
						"default_fontface" : 0,
						"fontname" : "Arial",
						"default_fontname" : "Arial",
						"default_fontsize" : 12.0,
						"globalpatchername" : "",
						"fontface" : 0,
						"fontsize" : 12.0
					}

				}

			}
, 			{
				"box" : 				{
					"maxclass" : "newobj",
					"text" : "prepend /NSControl/Fonction/XYYX",
					"outlettype" : [ "" ],
					"fontname" : "Arial",
					"id" : "obj-48",
					"patching_rect" : [ 46.0, 771.0, 201.0, 20.0 ],
					"numinlets" : 1,
					"numoutlets" : 1,
					"fontsize" : 12.0
				}

			}
, 			{
				"box" : 				{
					"maxclass" : "newobj",
					"text" : "prepend /NSControl/Fonction/AmpY",
					"outlettype" : [ "" ],
					"fontname" : "Arial",
					"id" : "obj-47",
					"patching_rect" : [ 30.0, 746.0, 202.0, 20.0 ],
					"numinlets" : 1,
					"numoutlets" : 1,
					"fontsize" : 12.0
				}

			}
, 			{
				"box" : 				{
					"maxclass" : "newobj",
					"text" : "prepend /NSControl/Fonction/AmpX",
					"outlettype" : [ "" ],
					"fontname" : "Arial",
					"id" : "obj-46",
					"patching_rect" : [ 20.0, 721.0, 202.0, 20.0 ],
					"numinlets" : 1,
					"numoutlets" : 1,
					"fontsize" : 12.0
				}

			}
, 			{
				"box" : 				{
					"maxclass" : "newobj",
					"text" : "route AmpX AmpY XY/YX NameText",
					"outlettype" : [ "", "", "", "", "" ],
					"fontname" : "Arial",
					"id" : "obj-44",
					"patching_rect" : [ 40.0, 600.0, 207.0, 20.0 ],
					"numinlets" : 1,
					"numoutlets" : 5,
					"fontsize" : 12.0
				}

			}
, 			{
				"box" : 				{
					"maxclass" : "message",
					"text" : "/NSControl/Fonction/Fx.xml 1 0 0 0 0 0 0 0",
					"linecount" : 6,
					"outlettype" : [ "" ],
					"fontname" : "Arial",
					"id" : "obj-32",
					"patching_rect" : [ 285.0, 835.0, 49.0, 87.0 ],
					"numinlets" : 2,
					"numoutlets" : 1,
					"fontsize" : 12.0
				}

			}
, 			{
				"box" : 				{
					"maxclass" : "outlet",
					"id" : "obj-80",
					"patching_rect" : [ 562.0, 823.0, 25.0, 25.0 ],
					"numinlets" : 1,
					"numoutlets" : 0,
					"comment" : ""
				}

			}
, 			{
				"box" : 				{
					"maxclass" : "message",
					"text" : "$2",
					"outlettype" : [ "" ],
					"fontname" : "Arial",
					"id" : "obj-77",
					"patching_rect" : [ 309.0, 650.0, 32.5, 18.0 ],
					"numinlets" : 2,
					"numoutlets" : 1,
					"fontsize" : 12.0
				}

			}
, 			{
				"box" : 				{
					"maxclass" : "message",
					"text" : "$1",
					"outlettype" : [ "" ],
					"fontname" : "Arial",
					"id" : "obj-76",
					"patching_rect" : [ 202.0, 649.0, 32.5, 18.0 ],
					"numinlets" : 2,
					"numoutlets" : 1,
					"fontsize" : 12.0
				}

			}
, 			{
				"box" : 				{
					"maxclass" : "newobj",
					"text" : "zl rev",
					"outlettype" : [ "", "" ],
					"fontname" : "Arial",
					"id" : "obj-74",
					"patching_rect" : [ 202.0, 624.0, 39.0, 20.0 ],
					"numinlets" : 2,
					"numoutlets" : 2,
					"fontsize" : 12.0
				}

			}
, 			{
				"box" : 				{
					"maxclass" : "message",
					"text" : "set $1",
					"outlettype" : [ "" ],
					"fontname" : "Arial",
					"id" : "obj-73",
					"patching_rect" : [ 309.0, 694.0, 43.0, 18.0 ],
					"numinlets" : 2,
					"numoutlets" : 1,
					"fontsize" : 12.0
				}

			}
, 			{
				"box" : 				{
					"maxclass" : "newobj",
					"text" : "prepend",
					"outlettype" : [ "" ],
					"fontname" : "Arial",
					"id" : "obj-72",
					"patching_rect" : [ 309.0, 720.0, 55.0, 20.0 ],
					"numinlets" : 1,
					"numoutlets" : 1,
					"fontsize" : 12.0
				}

			}
, 			{
				"box" : 				{
					"maxclass" : "newobj",
					"text" : "sprintf /NSControl/Fonction/%s",
					"outlettype" : [ "" ],
					"fontname" : "Arial",
					"id" : "obj-71",
					"patching_rect" : [ 309.0, 669.0, 175.0, 20.0 ],
					"numinlets" : 1,
					"numoutlets" : 1,
					"fontsize" : 12.0
				}

			}
, 			{
				"box" : 				{
					"maxclass" : "newobj",
					"text" : "p tabToSwitchosc",
					"outlettype" : [ "" ],
					"fontname" : "Arial",
					"id" : "obj-111",
					"patching_rect" : [ 202.0, 670.0, 105.0, 20.0 ],
					"numinlets" : 1,
					"numoutlets" : 1,
					"fontsize" : 12.0,
					"patcher" : 					{
						"fileversion" : 1,
						"rect" : [ 17.0, 507.0, 640.0, 480.0 ],
						"bglocked" : 0,
						"defrect" : [ 17.0, 507.0, 640.0, 480.0 ],
						"openrect" : [ 0.0, 0.0, 0.0, 0.0 ],
						"openinpresentation" : 0,
						"default_fontsize" : 12.0,
						"default_fontface" : 0,
						"default_fontname" : "Arial",
						"gridonopen" : 0,
						"gridsize" : [ 15.0, 15.0 ],
						"gridsnaponopen" : 0,
						"toolbarvisible" : 1,
						"boxanimatetime" : 200,
						"imprint" : 0,
						"metadata" : [  ],
						"boxes" : [ 							{
								"box" : 								{
									"maxclass" : "newobj",
									"text" : "+ 1",
									"outlettype" : [ "int" ],
									"fontname" : "Arial",
									"id" : "obj-105",
									"patching_rect" : [ 51.0, 100.0, 32.5, 20.0 ],
									"numinlets" : 2,
									"numoutlets" : 1,
									"fontsize" : 12.0
								}

							}
, 							{
								"box" : 								{
									"maxclass" : "message",
									"text" : "0 0 0 0 0 0 0 0",
									"outlettype" : [ "" ],
									"fontname" : "Arial",
									"id" : "obj-101",
									"patching_rect" : [ 50.0, 174.0, 87.0, 18.0 ],
									"numinlets" : 2,
									"numoutlets" : 1,
									"fontsize" : 12.0
								}

							}
, 							{
								"box" : 								{
									"maxclass" : "newobj",
									"text" : "t b l",
									"outlettype" : [ "bang", "" ],
									"fontname" : "Arial",
									"id" : "obj-100",
									"patching_rect" : [ 51.0, 150.0, 32.5, 20.0 ],
									"numinlets" : 1,
									"numoutlets" : 2,
									"fontsize" : 12.0
								}

							}
, 							{
								"box" : 								{
									"maxclass" : "message",
									"text" : "$1 1",
									"outlettype" : [ "" ],
									"fontname" : "Arial",
									"id" : "obj-99",
									"patching_rect" : [ 51.0, 124.0, 34.0, 18.0 ],
									"numinlets" : 2,
									"numoutlets" : 1,
									"fontsize" : 12.0
								}

							}
, 							{
								"box" : 								{
									"maxclass" : "newobj",
									"text" : "zl nth 1",
									"outlettype" : [ "", "" ],
									"fontname" : "Arial",
									"id" : "obj-98",
									"patching_rect" : [ 50.0, 204.0, 49.0, 20.0 ],
									"numinlets" : 2,
									"numoutlets" : 2,
									"fontsize" : 12.0
								}

							}
, 							{
								"box" : 								{
									"maxclass" : "inlet",
									"outlettype" : [ "" ],
									"id" : "obj-106",
									"patching_rect" : [ 56.0, 40.0, 25.0, 25.0 ],
									"numinlets" : 0,
									"numoutlets" : 1,
									"comment" : ""
								}

							}
, 							{
								"box" : 								{
									"maxclass" : "outlet",
									"id" : "obj-110",
									"patching_rect" : [ 85.0, 284.0, 25.0, 25.0 ],
									"numinlets" : 1,
									"numoutlets" : 0,
									"comment" : ""
								}

							}
 ],
						"lines" : [ 							{
								"patchline" : 								{
									"source" : [ "obj-98", 1 ],
									"destination" : [ "obj-110", 0 ],
									"hidden" : 0,
									"midpoints" : [  ]
								}

							}
, 							{
								"patchline" : 								{
									"source" : [ "obj-106", 0 ],
									"destination" : [ "obj-105", 0 ],
									"hidden" : 0,
									"midpoints" : [  ]
								}

							}
, 							{
								"patchline" : 								{
									"source" : [ "obj-105", 0 ],
									"destination" : [ "obj-99", 0 ],
									"hidden" : 0,
									"midpoints" : [  ]
								}

							}
, 							{
								"patchline" : 								{
									"source" : [ "obj-99", 0 ],
									"destination" : [ "obj-100", 0 ],
									"hidden" : 0,
									"midpoints" : [  ]
								}

							}
, 							{
								"patchline" : 								{
									"source" : [ "obj-100", 0 ],
									"destination" : [ "obj-101", 0 ],
									"hidden" : 0,
									"midpoints" : [  ]
								}

							}
, 							{
								"patchline" : 								{
									"source" : [ "obj-100", 1 ],
									"destination" : [ "obj-98", 1 ],
									"hidden" : 0,
									"midpoints" : [  ]
								}

							}
, 							{
								"patchline" : 								{
									"source" : [ "obj-101", 0 ],
									"destination" : [ "obj-98", 0 ],
									"hidden" : 0,
									"midpoints" : [  ]
								}

							}
 ]
					}
,
					"saved_object_attributes" : 					{
						"default_fontface" : 0,
						"fontname" : "Arial",
						"default_fontname" : "Arial",
						"default_fontsize" : 12.0,
						"globalpatchername" : "",
						"fontface" : 0,
						"fontsize" : 12.0
					}

				}

			}
, 			{
				"box" : 				{
					"maxclass" : "newobj",
					"text" : "r loadMultiFx",
					"outlettype" : [ "" ],
					"fontname" : "Arial",
					"id" : "obj-6",
					"patching_rect" : [ 226.0, 509.0, 79.0, 20.0 ],
					"numinlets" : 0,
					"numoutlets" : 1,
					"fontsize" : 12.0
				}

			}
, 			{
				"box" : 				{
					"maxclass" : "newobj",
					"text" : "+ 1",
					"outlettype" : [ "int" ],
					"fontname" : "Arial",
					"id" : "obj-42",
					"patching_rect" : [ 101.0, 228.0, 32.5, 20.0 ],
					"numinlets" : 2,
					"numoutlets" : 1,
					"fontsize" : 12.0
				}

			}
, 			{
				"box" : 				{
					"maxclass" : "newobj",
					"text" : "+ 1",
					"outlettype" : [ "int" ],
					"fontname" : "Arial",
					"id" : "obj-35",
					"patching_rect" : [ 127.0, 108.0, 32.5, 20.0 ],
					"numinlets" : 2,
					"numoutlets" : 1,
					"fontsize" : 12.0
				}

			}
, 			{
				"box" : 				{
					"maxclass" : "textbutton",
					"outlettype" : [ "", "", "int" ],
					"presentation_rect" : [ 4.0, 524.0, 226.0, 36.0 ],
					"fontname" : "Arial",
					"id" : "obj-5",
					"patching_rect" : [ 411.0, 435.0, 80.0, 44.0 ],
					"numinlets" : 1,
					"presentation" : 1,
					"text" : "FXList",
					"numoutlets" : 3,
					"fontsize" : 12.0
				}

			}
, 			{
				"box" : 				{
					"maxclass" : "newobj",
					"text" : "t 0 i",
					"outlettype" : [ "int", "int" ],
					"fontname" : "Arial",
					"id" : "obj-40",
					"patching_rect" : [ 689.0, 391.0, 32.5, 20.0 ],
					"numinlets" : 1,
					"numoutlets" : 2,
					"fontsize" : 12.0
				}

			}
, 			{
				"box" : 				{
					"maxclass" : "newobj",
					"varname" : "BB",
					"text" : "autopattr BB",
					"outlettype" : [ "", "", "", "" ],
					"fontname" : "Arial",
					"id" : "obj-34",
					"patching_rect" : [ 331.0, 531.0, 77.0, 20.0 ],
					"numinlets" : 1,
					"numoutlets" : 4,
					"fontsize" : 12.0,
					"restore" : 					{
						"AmpX" : [ 0.43956 ],
						"AmpY" : [ 0.460829 ],
						"Inv" : [ 0 ],
						"NameText" : [ "Tri" ],
						"Rapport" : [ 4 ],
						"SinTri" : [ 1 ],
						"XY/YX" : [ 0 ],
						"dPhase" : [ 2 ]
					}

				}

			}
, 			{
				"box" : 				{
					"maxclass" : "newobj",
					"text" : "prepend store",
					"outlettype" : [ "" ],
					"fontname" : "Arial",
					"id" : "obj-33",
					"patching_rect" : [ 128.0, 509.0, 85.0, 20.0 ],
					"numinlets" : 1,
					"numoutlets" : 1,
					"fontsize" : 12.0
				}

			}
, 			{
				"box" : 				{
					"maxclass" : "newobj",
					"varname" : "Fx",
					"text" : "pattrstorage Fx @greedy 2 @autowatch 1 @outputmode 1 @savemode 0",
					"outlettype" : [ "" ],
					"fontname" : "Arial",
					"id" : "obj-31",
					"patching_rect" : [ 176.0, 579.0, 403.0, 20.0 ],
					"numinlets" : 1,
					"numoutlets" : 1,
					"fontsize" : 12.0,
					"saved_object_attributes" : 					{
						"storage_rect" : [ 137, 339, 737, 639 ],
						"client_rect" : [ 184, 141, 536, 768 ]
					}

				}

			}
, 			{
				"box" : 				{
					"maxclass" : "newobj",
					"text" : "sel 0",
					"outlettype" : [ "bang", "" ],
					"fontname" : "Arial",
					"id" : "obj-25",
					"patching_rect" : [ 730.0, 146.0, 36.0, 20.0 ],
					"numinlets" : 2,
					"numoutlets" : 2,
					"fontsize" : 12.0
				}

			}
, 			{
				"box" : 				{
					"maxclass" : "newobj",
					"text" : "* 1.",
					"outlettype" : [ "float" ],
					"fontname" : "Arial",
					"id" : "obj-18",
					"patching_rect" : [ 936.0, 610.0, 32.5, 20.0 ],
					"numinlets" : 2,
					"numoutlets" : 1,
					"fontsize" : 12.0
				}

			}
, 			{
				"box" : 				{
					"maxclass" : "newobj",
					"text" : "t b i",
					"outlettype" : [ "bang", "int" ],
					"fontname" : "Arial",
					"id" : "obj-17",
					"patching_rect" : [ 101.0, 43.0, 32.5, 20.0 ],
					"numinlets" : 1,
					"numoutlets" : 2,
					"fontsize" : 12.0
				}

			}
, 			{
				"box" : 				{
					"maxclass" : "flonum",
					"outlettype" : [ "float", "bang" ],
					"fontname" : "Arial",
					"id" : "obj-27",
					"patching_rect" : [ 830.0, 322.0, 50.0, 20.0 ],
					"numinlets" : 1,
					"numoutlets" : 2,
					"fontsize" : 12.0
				}

			}
, 			{
				"box" : 				{
					"maxclass" : "flonum",
					"outlettype" : [ "float", "bang" ],
					"fontname" : "Arial",
					"id" : "obj-26",
					"patching_rect" : [ 830.0, 355.0, 50.0, 20.0 ],
					"numinlets" : 1,
					"numoutlets" : 2,
					"fontsize" : 12.0
				}

			}
, 			{
				"box" : 				{
					"maxclass" : "comment",
					"text" : ">> <<",
					"fontname" : "Arial",
					"id" : "obj-22",
					"patching_rect" : [ 577.0, 375.0, 57.0, 20.0 ],
					"numinlets" : 1,
					"numoutlets" : 0,
					"fontsize" : 12.0
				}

			}
, 			{
				"box" : 				{
					"maxclass" : "newobj",
					"text" : "t b i",
					"outlettype" : [ "bang", "int" ],
					"fontname" : "Arial",
					"id" : "obj-19",
					"patching_rect" : [ 574.0, 452.0, 32.5, 20.0 ],
					"numinlets" : 1,
					"numoutlets" : 2,
					"fontsize" : 12.0
				}

			}
, 			{
				"box" : 				{
					"maxclass" : "message",
					"text" : "-1",
					"outlettype" : [ "" ],
					"fontname" : "Arial",
					"id" : "obj-13",
					"patching_rect" : [ 609.0, 427.0, 32.5, 18.0 ],
					"numinlets" : 2,
					"numoutlets" : 1,
					"fontsize" : 12.0
				}

			}
, 			{
				"box" : 				{
					"maxclass" : "message",
					"text" : "1",
					"outlettype" : [ "" ],
					"fontname" : "Arial",
					"id" : "obj-8",
					"patching_rect" : [ 574.0, 427.0, 32.5, 18.0 ],
					"numinlets" : 2,
					"numoutlets" : 1,
					"fontsize" : 12.0
				}

			}
, 			{
				"box" : 				{
					"maxclass" : "newobj",
					"text" : "sel 0 1",
					"outlettype" : [ "bang", "bang", "" ],
					"fontname" : "Arial",
					"id" : "obj-7",
					"patching_rect" : [ 574.0, 402.0, 46.0, 20.0 ],
					"numinlets" : 1,
					"numoutlets" : 3,
					"fontsize" : 12.0
				}

			}
, 			{
				"box" : 				{
					"maxclass" : "tab",
					"varname" : "Inv",
					"outlettype" : [ "int", "", "" ],
					"presentation_rect" : [ 4.0, 159.0, 227.0, 20.0 ],
					"fontname" : "Arial",
					"id" : "obj-4",
					"patching_rect" : [ 366.0, 231.0, 200.0, 20.0 ],
					"numinlets" : 1,
					"presentation" : 1,
					"numoutlets" : 3,
					"tabs" : [ ">>", "<<" ],
					"fontsize" : 12.0
				}

			}
, 			{
				"box" : 				{
					"maxclass" : "textbutton",
					"outlettype" : [ "", "", "int" ],
					"ignoreclick" : 1,
					"presentation_rect" : [ 5.0, 3.0, 225.0, 28.0 ],
					"fontname" : "Arial",
					"id" : "obj-219",
					"patching_rect" : [ 424.0, 16.0, 100.0, 20.0 ],
					"numinlets" : 1,
					"presentation" : 1,
					"text" : "MultiFX",
					"numoutlets" : 3,
					"fontsize" : 12.0
				}

			}
, 			{
				"box" : 				{
					"maxclass" : "message",
					"text" : "3",
					"outlettype" : [ "" ],
					"fontname" : "Arial",
					"id" : "obj-217",
					"patching_rect" : [ 101.0, 138.0, 43.0, 18.0 ],
					"numinlets" : 2,
					"numoutlets" : 1,
					"fontsize" : 12.0
				}

			}
, 			{
				"box" : 				{
					"maxclass" : "textbutton",
					"outlettype" : [ "", "", "int" ],
					"presentation_rect" : [ 96.0, 449.0, 135.0, 36.0 ],
					"fontname" : "Arial",
					"id" : "obj-216",
					"patching_rect" : [ 194.0, 62.0, 80.0, 44.0 ],
					"numinlets" : 1,
					"presentation" : 1,
					"text" : "Recall",
					"numoutlets" : 3,
					"fontsize" : 12.0
				}

			}
, 			{
				"box" : 				{
					"maxclass" : "textbutton",
					"outlettype" : [ "", "", "int" ],
					"presentation_rect" : [ 96.0, 486.0, 135.0, 36.0 ],
					"fontname" : "Arial",
					"id" : "obj-215",
					"patching_rect" : [ 178.0, 178.0, 80.0, 44.0 ],
					"numinlets" : 1,
					"presentation" : 1,
					"text" : "Store",
					"numoutlets" : 3,
					"fontsize" : 12.0
				}

			}
, 			{
				"box" : 				{
					"maxclass" : "newobj",
					"text" : "loadbang",
					"outlettype" : [ "bang" ],
					"fontname" : "Arial",
					"id" : "obj-211",
					"patching_rect" : [ 608.0, 5.0, 60.0, 20.0 ],
					"numinlets" : 1,
					"numoutlets" : 1,
					"fontsize" : 12.0
				}

			}
, 			{
				"box" : 				{
					"maxclass" : "button",
					"outlettype" : [ "bang" ],
					"id" : "obj-208",
					"patching_rect" : [ 421.0, 724.0, 20.0, 20.0 ],
					"numinlets" : 1,
					"numoutlets" : 1
				}

			}
, 			{
				"box" : 				{
					"maxclass" : "message",
					"text" : "0 0, 1 0.125, 2 0.1666, 3 0.25, 4 0.333, 5 0.5, 6 0.666, 7 1",
					"outlettype" : [ "" ],
					"fontname" : "Arial",
					"id" : "obj-205",
					"patching_rect" : [ 608.0, 92.0, 317.0, 18.0 ],
					"numinlets" : 2,
					"numoutlets" : 1,
					"fontsize" : 12.0
				}

			}
, 			{
				"box" : 				{
					"maxclass" : "newobj",
					"text" : "coll",
					"outlettype" : [ "", "", "", "" ],
					"fontname" : "Arial",
					"id" : "obj-204",
					"patching_rect" : [ 607.0, 115.0, 59.5, 20.0 ],
					"numinlets" : 1,
					"numoutlets" : 4,
					"fontsize" : 12.0,
					"save" : [ "#N", "coll", ";" ],
					"saved_object_attributes" : 					{
						"embed" : 0
					}

				}

			}
, 			{
				"box" : 				{
					"maxclass" : "comment",
					"text" : "XY/YX",
					"fontname" : "Arial",
					"id" : "obj-203",
					"patching_rect" : [ 578.0, 498.0, 57.0, 20.0 ],
					"numinlets" : 1,
					"numoutlets" : 0,
					"fontsize" : 12.0
				}

			}
, 			{
				"box" : 				{
					"maxclass" : "slider",
					"varname" : "AmpY",
					"outlettype" : [ "" ],
					"floatoutput" : 1,
					"presentation_rect" : [ 4.0, 121.0, 227.0, 14.0 ],
					"id" : "obj-202",
					"patching_rect" : [ 369.0, 193.0, 192.0, 14.0 ],
					"numinlets" : 1,
					"presentation" : 1,
					"numoutlets" : 1,
					"orientation" : 1,
					"size" : 1.0
				}

			}
, 			{
				"box" : 				{
					"maxclass" : "slider",
					"varname" : "AmpX",
					"outlettype" : [ "" ],
					"floatoutput" : 1,
					"presentation_rect" : [ 4.0, 105.0, 227.0, 14.0 ],
					"id" : "obj-37",
					"patching_rect" : [ 369.0, 177.0, 192.0, 14.0 ],
					"numinlets" : 1,
					"presentation" : 1,
					"numoutlets" : 1,
					"orientation" : 1,
					"size" : 1.0
				}

			}
, 			{
				"box" : 				{
					"maxclass" : "newobj",
					"text" : "sel 0 1",
					"outlettype" : [ "bang", "bang", "" ],
					"fontname" : "Arial",
					"id" : "obj-200",
					"patching_rect" : [ 585.0, 534.0, 46.0, 20.0 ],
					"numinlets" : 1,
					"numoutlets" : 3,
					"fontsize" : 12.0
				}

			}
, 			{
				"box" : 				{
					"maxclass" : "tab",
					"varname" : "XY/YX",
					"outlettype" : [ "int", "", "" ],
					"presentation_rect" : [ 4.0, 138.0, 227.0, 20.0 ],
					"fontname" : "Arial",
					"id" : "obj-199",
					"patching_rect" : [ 366.0, 209.0, 200.0, 20.0 ],
					"numinlets" : 1,
					"presentation" : 1,
					"numoutlets" : 3,
					"tabs" : [ "XY", "YX" ],
					"fontsize" : 12.0
				}

			}
, 			{
				"box" : 				{
					"maxclass" : "newobj",
					"text" : "loadbang",
					"outlettype" : [ "bang" ],
					"fontname" : "Arial",
					"id" : "obj-198",
					"patching_rect" : [ 572.0, 559.0, 60.0, 20.0 ],
					"numinlets" : 1,
					"numoutlets" : 1,
					"fontsize" : 12.0
				}

			}
, 			{
				"box" : 				{
					"maxclass" : "message",
					"text" : "patch 0 1, patch 1 0",
					"outlettype" : [ "" ],
					"fontname" : "Arial",
					"id" : "obj-197",
					"patching_rect" : [ 585.0, 627.0, 116.0, 18.0 ],
					"numinlets" : 2,
					"numoutlets" : 1,
					"fontsize" : 12.0
				}

			}
, 			{
				"box" : 				{
					"maxclass" : "message",
					"text" : "patch 0 0, patch 1 1",
					"outlettype" : [ "" ],
					"fontname" : "Arial",
					"id" : "obj-195",
					"patching_rect" : [ 585.0, 605.0, 116.0, 18.0 ],
					"numinlets" : 2,
					"numoutlets" : 1,
					"fontsize" : 12.0
				}

			}
, 			{
				"box" : 				{
					"maxclass" : "newobj",
					"text" : "router 2 2",
					"outlettype" : [ "", "", "" ],
					"fontname" : "Arial",
					"id" : "obj-194",
					"patching_rect" : [ 673.0, 659.0, 62.0, 20.0 ],
					"numinlets" : 3,
					"numoutlets" : 3,
					"fontsize" : 12.0
				}

			}
, 			{
				"box" : 				{
					"maxclass" : "newobj",
					"text" : "sprintf %s",
					"outlettype" : [ "" ],
					"fontname" : "Arial",
					"id" : "obj-191",
					"patching_rect" : [ 457.0, 150.0, 63.0, 20.0 ],
					"numinlets" : 1,
					"numoutlets" : 1,
					"fontsize" : 12.0
				}

			}
, 			{
				"box" : 				{
					"maxclass" : "tab",
					"varname" : "Rapport",
					"outlettype" : [ "int", "", "" ],
					"presentation_rect" : [ 4.0, 79.0, 227.0, 20.0 ],
					"fontname" : "Arial",
					"id" : "obj-190",
					"patching_rect" : [ 366.0, 123.0, 200.0, 20.0 ],
					"numinlets" : 1,
					"presentation" : 1,
					"numoutlets" : 3,
					"tabs" : [ "1", "2", "3", "4", "5", "6", "7", "8" ],
					"fontsize" : 12.0
				}

			}
, 			{
				"box" : 				{
					"maxclass" : "tab",
					"varname" : "dPhase",
					"outlettype" : [ "int", "", "" ],
					"presentation_rect" : [ 4.0, 58.0, 227.0, 20.0 ],
					"fontname" : "Arial",
					"id" : "obj-155",
					"patching_rect" : [ 366.0, 96.0, 200.0, 20.0 ],
					"numinlets" : 1,
					"presentation" : 1,
					"numoutlets" : 3,
					"tabs" : [ "---", "--", "-", "0", "+", "++", "+++" ],
					"fontsize" : 12.0
				}

			}
, 			{
				"box" : 				{
					"maxclass" : "tab",
					"varname" : "SinTri",
					"outlettype" : [ "int", "", "" ],
					"presentation_rect" : [ 4.0, 36.0, 227.0, 20.0 ],
					"fontname" : "Arial",
					"id" : "obj-154",
					"patching_rect" : [ 366.0, 74.0, 200.0, 20.0 ],
					"numinlets" : 1,
					"presentation" : 1,
					"numoutlets" : 3,
					"tabs" : [ "Off", "Sin", "Tri" ],
					"fontsize" : 12.0
				}

			}
, 			{
				"box" : 				{
					"maxclass" : "newobj",
					"text" : "loadmess 0",
					"outlettype" : [ "" ],
					"fontname" : "Arial",
					"id" : "obj-153",
					"patching_rect" : [ 331.0, 341.0, 72.0, 20.0 ],
					"numinlets" : 1,
					"numoutlets" : 1,
					"fontsize" : 12.0
				}

			}
, 			{
				"box" : 				{
					"maxclass" : "button",
					"outlettype" : [ "bang" ],
					"id" : "obj-140",
					"patching_rect" : [ 720.0, 247.0, 20.0, 20.0 ],
					"numinlets" : 1,
					"numoutlets" : 1
				}

			}
, 			{
				"box" : 				{
					"maxclass" : "number",
					"outlettype" : [ "int", "bang" ],
					"fontname" : "Arial",
					"id" : "obj-136",
					"patching_rect" : [ 1142.0, 141.0, 50.0, 20.0 ],
					"numinlets" : 1,
					"numoutlets" : 2,
					"fontsize" : 12.0
				}

			}
, 			{
				"box" : 				{
					"maxclass" : "number",
					"outlettype" : [ "int", "bang" ],
					"fontname" : "Arial",
					"id" : "obj-135",
					"patching_rect" : [ 846.0, 141.0, 50.0, 20.0 ],
					"numinlets" : 1,
					"numoutlets" : 2,
					"fontsize" : 12.0
				}

			}
, 			{
				"box" : 				{
					"maxclass" : "number",
					"outlettype" : [ "int", "bang" ],
					"fontname" : "Arial",
					"id" : "obj-122",
					"patching_rect" : [ 747.0, 117.0, 50.0, 20.0 ],
					"numinlets" : 1,
					"numoutlets" : 2,
					"fontsize" : 12.0
				}

			}
, 			{
				"box" : 				{
					"maxclass" : "comment",
					"text" : "AMPY",
					"fontname" : "Arial",
					"id" : "obj-121",
					"patching_rect" : [ 562.0, 186.0, 57.0, 20.0 ],
					"numinlets" : 1,
					"numoutlets" : 0,
					"fontsize" : 12.0
				}

			}
, 			{
				"box" : 				{
					"maxclass" : "comment",
					"text" : "AMPX",
					"fontname" : "Arial",
					"id" : "obj-120",
					"patching_rect" : [ 563.0, 170.0, 57.0, 20.0 ],
					"numinlets" : 1,
					"numoutlets" : 0,
					"fontsize" : 12.0
				}

			}
, 			{
				"box" : 				{
					"maxclass" : "newobj",
					"text" : "/ 2",
					"outlettype" : [ "int" ],
					"fontname" : "Arial",
					"id" : "obj-119",
					"patching_rect" : [ 1142.0, 171.0, 32.5, 20.0 ],
					"numinlets" : 2,
					"numoutlets" : 1,
					"fontsize" : 12.0
				}

			}
, 			{
				"box" : 				{
					"maxclass" : "newobj",
					"text" : "t b f",
					"outlettype" : [ "bang", "float" ],
					"fontname" : "Arial",
					"id" : "obj-108",
					"patching_rect" : [ 1169.0, 260.0, 32.5, 20.0 ],
					"numinlets" : 1,
					"numoutlets" : 2,
					"fontsize" : 12.0
				}

			}
, 			{
				"box" : 				{
					"maxclass" : "newobj",
					"text" : "t b f",
					"outlettype" : [ "bang", "float" ],
					"fontname" : "Arial",
					"id" : "obj-115",
					"patching_rect" : [ 1113.0, 304.0, 32.5, 20.0 ],
					"numinlets" : 1,
					"numoutlets" : 2,
					"fontsize" : 12.0
				}

			}
, 			{
				"box" : 				{
					"maxclass" : "newobj",
					"text" : "expr $i1 * $f2",
					"outlettype" : [ "" ],
					"fontname" : "Arial",
					"id" : "obj-107",
					"patching_rect" : [ 1169.0, 284.0, 81.0, 20.0 ],
					"numinlets" : 2,
					"numoutlets" : 1,
					"fontsize" : 12.0
				}

			}
, 			{
				"box" : 				{
					"maxclass" : "newobj",
					"text" : "expr $i1 * $f2",
					"outlettype" : [ "" ],
					"fontname" : "Arial",
					"id" : "obj-106",
					"patching_rect" : [ 1113.0, 333.0, 81.0, 20.0 ],
					"numinlets" : 2,
					"numoutlets" : 1,
					"fontsize" : 12.0
				}

			}
, 			{
				"box" : 				{
					"maxclass" : "newobj",
					"text" : "/ 255.",
					"outlettype" : [ "float" ],
					"fontname" : "Arial",
					"id" : "obj-99",
					"patching_rect" : [ 846.0, 171.0, 41.0, 20.0 ],
					"numinlets" : 2,
					"numoutlets" : 1,
					"fontsize" : 12.0
				}

			}
, 			{
				"box" : 				{
					"maxclass" : "newobj",
					"text" : "expr ($f1/127.)",
					"outlettype" : [ "" ],
					"fontname" : "Arial",
					"id" : "obj-98",
					"patching_rect" : [ 747.0, 170.0, 89.0, 20.0 ],
					"numinlets" : 1,
					"numoutlets" : 1,
					"fontsize" : 12.0
				}

			}
, 			{
				"box" : 				{
					"maxclass" : "newobj",
					"text" : "expr -3.14*$f1",
					"outlettype" : [ "" ],
					"fontname" : "Arial",
					"id" : "obj-96",
					"patching_rect" : [ 951.0, 325.0, 86.0, 20.0 ],
					"numinlets" : 1,
					"numoutlets" : 1,
					"fontsize" : 12.0
				}

			}
, 			{
				"box" : 				{
					"maxclass" : "newobj",
					"text" : "expr 3.14*$f1",
					"outlettype" : [ "" ],
					"fontname" : "Arial",
					"id" : "obj-95",
					"patching_rect" : [ 972.0, 351.0, 82.0, 20.0 ],
					"numinlets" : 1,
					"numoutlets" : 1,
					"fontsize" : 12.0
				}

			}
, 			{
				"box" : 				{
					"maxclass" : "comment",
					"text" : "FREQ",
					"fontname" : "Arial",
					"id" : "obj-94",
					"patching_rect" : [ 755.0, 192.0, 62.0, 20.0 ],
					"numinlets" : 1,
					"numoutlets" : 0,
					"fontsize" : 12.0
				}

			}
, 			{
				"box" : 				{
					"maxclass" : "comment",
					"text" : "AMPLITUDE",
					"fontname" : "Arial",
					"id" : "obj-92",
					"patching_rect" : [ 1150.0, 192.0, 91.0, 20.0 ],
					"numinlets" : 1,
					"numoutlets" : 0,
					"fontsize" : 12.0
				}

			}
, 			{
				"box" : 				{
					"maxclass" : "comment",
					"text" : "RAPPORT",
					"fontname" : "Arial",
					"id" : "obj-91",
					"patching_rect" : [ 561.0, 122.0, 91.0, 20.0 ],
					"numinlets" : 1,
					"numoutlets" : 0,
					"fontsize" : 12.0
				}

			}
, 			{
				"box" : 				{
					"maxclass" : "comment",
					"text" : "DPHASE",
					"fontname" : "Arial",
					"id" : "obj-90",
					"patching_rect" : [ 561.0, 96.0, 62.0, 20.0 ],
					"numinlets" : 1,
					"numoutlets" : 0,
					"fontsize" : 12.0
				}

			}
, 			{
				"box" : 				{
					"maxclass" : "comment",
					"text" : "ANGLE",
					"fontname" : "Arial",
					"id" : "obj-89",
					"patching_rect" : [ 855.0, 192.0, 62.0, 20.0 ],
					"numinlets" : 1,
					"numoutlets" : 0,
					"fontsize" : 12.0
				}

			}
, 			{
				"box" : 				{
					"maxclass" : "comment",
					"text" : "OFF/TRI/SIN",
					"fontname" : "Arial",
					"id" : "obj-87",
					"patching_rect" : [ 420.0, 50.0, 89.0, 20.0 ],
					"numinlets" : 1,
					"numoutlets" : 0,
					"fontsize" : 12.0
				}

			}
, 			{
				"box" : 				{
					"maxclass" : "newobj",
					"text" : "+ 0.",
					"outlettype" : [ "float" ],
					"fontname" : "Arial",
					"id" : "obj-85",
					"patching_rect" : [ 1019.0, 401.0, 32.5, 20.0 ],
					"numinlets" : 2,
					"numoutlets" : 1,
					"fontsize" : 12.0
				}

			}
, 			{
				"box" : 				{
					"maxclass" : "newobj",
					"text" : "gate 2",
					"outlettype" : [ "", "" ],
					"fontname" : "Arial",
					"id" : "obj-84",
					"patching_rect" : [ 695.0, 433.0, 44.0, 20.0 ],
					"numinlets" : 2,
					"numoutlets" : 2,
					"fontsize" : 12.0
				}

			}
, 			{
				"box" : 				{
					"maxclass" : "newobj",
					"text" : "f",
					"outlettype" : [ "float" ],
					"fontname" : "Arial",
					"id" : "obj-81",
					"patching_rect" : [ 720.0, 339.0, 83.5, 20.0 ],
					"numinlets" : 2,
					"numoutlets" : 1,
					"fontsize" : 12.0
				}

			}
, 			{
				"box" : 				{
					"maxclass" : "newobj",
					"text" : "+ 0.",
					"outlettype" : [ "float" ],
					"fontname" : "Arial",
					"id" : "obj-78",
					"patching_rect" : [ 695.0, 485.0, 32.5, 20.0 ],
					"numinlets" : 2,
					"numoutlets" : 1,
					"fontsize" : 12.0
				}

			}
, 			{
				"box" : 				{
					"maxclass" : "newobj",
					"text" : "t b f f",
					"outlettype" : [ "bang", "float", "float" ],
					"fontname" : "Arial",
					"id" : "obj-75",
					"patching_rect" : [ 758.0, 287.0, 46.0, 20.0 ],
					"numinlets" : 1,
					"numoutlets" : 3,
					"fontsize" : 12.0
				}

			}
, 			{
				"box" : 				{
					"maxclass" : "newobj",
					"text" : "!/ 1000.",
					"outlettype" : [ "float" ],
					"fontname" : "Arial",
					"id" : "obj-68",
					"patching_rect" : [ 758.0, 264.0, 51.0, 20.0 ],
					"numinlets" : 2,
					"numoutlets" : 1,
					"fontsize" : 12.0
				}

			}
, 			{
				"box" : 				{
					"maxclass" : "newobj",
					"text" : "scale 0 3.14 -1. 1.",
					"outlettype" : [ "float" ],
					"fontname" : "Arial",
					"id" : "obj-67",
					"patching_rect" : [ 1019.0, 558.0, 106.0, 20.0 ],
					"numinlets" : 6,
					"numoutlets" : 1,
					"fontsize" : 12.0
				}

			}
, 			{
				"box" : 				{
					"maxclass" : "newobj",
					"text" : "scale 0 3.14 -1. 1.",
					"outlettype" : [ "float" ],
					"fontname" : "Arial",
					"id" : "obj-66",
					"patching_rect" : [ 1261.0, 558.0, 106.0, 20.0 ],
					"numinlets" : 6,
					"numoutlets" : 1,
					"fontsize" : 12.0
				}

			}
, 			{
				"box" : 				{
					"maxclass" : "newobj",
					"text" : "acos",
					"outlettype" : [ "float" ],
					"fontname" : "Arial",
					"id" : "obj-63",
					"patching_rect" : [ 1261.0, 531.0, 36.0, 20.0 ],
					"numinlets" : 1,
					"numoutlets" : 1,
					"fontsize" : 12.0
				}

			}
, 			{
				"box" : 				{
					"maxclass" : "newobj",
					"text" : "acos",
					"outlettype" : [ "float" ],
					"fontname" : "Arial",
					"id" : "obj-60",
					"patching_rect" : [ 1019.0, 534.0, 36.0, 20.0 ],
					"numinlets" : 1,
					"numoutlets" : 1,
					"fontsize" : 12.0
				}

			}
, 			{
				"box" : 				{
					"maxclass" : "newobj",
					"text" : "scale 0. 1. -3.14 3.14",
					"outlettype" : [ "float" ],
					"fontname" : "Arial",
					"id" : "obj-52",
					"patching_rect" : [ 1261.0, 477.0, 123.0, 20.0 ],
					"numinlets" : 6,
					"numoutlets" : 1,
					"fontsize" : 12.0
				}

			}
, 			{
				"box" : 				{
					"maxclass" : "newobj",
					"text" : "scale 0. 1. -3.14 3.14",
					"outlettype" : [ "float" ],
					"fontname" : "Arial",
					"id" : "obj-53",
					"patching_rect" : [ 1019.0, 483.0, 123.0, 20.0 ],
					"numinlets" : 6,
					"numoutlets" : 1,
					"fontsize" : 12.0
				}

			}
, 			{
				"box" : 				{
					"maxclass" : "newobj",
					"text" : "+ 0.",
					"outlettype" : [ "float" ],
					"fontname" : "Arial",
					"id" : "obj-55",
					"patching_rect" : [ 1261.0, 452.0, 32.5, 20.0 ],
					"numinlets" : 2,
					"numoutlets" : 1,
					"fontsize" : 12.0
				}

			}
, 			{
				"box" : 				{
					"maxclass" : "newobj",
					"text" : "cos",
					"outlettype" : [ "float" ],
					"fontname" : "Arial",
					"id" : "obj-56",
					"patching_rect" : [ 1261.0, 503.0, 29.0, 20.0 ],
					"numinlets" : 1,
					"numoutlets" : 1,
					"fontsize" : 12.0
				}

			}
, 			{
				"box" : 				{
					"maxclass" : "newobj",
					"text" : "cos",
					"outlettype" : [ "float" ],
					"fontname" : "Arial",
					"id" : "obj-58",
					"patching_rect" : [ 1019.0, 511.0, 29.0, 20.0 ],
					"numinlets" : 1,
					"numoutlets" : 1,
					"fontsize" : 12.0
				}

			}
, 			{
				"box" : 				{
					"maxclass" : "newobj",
					"text" : "scale 0. 1. -3.14 3.14",
					"outlettype" : [ "float" ],
					"fontname" : "Arial",
					"id" : "obj-41",
					"patching_rect" : [ 889.0, 537.0, 123.0, 20.0 ],
					"numinlets" : 6,
					"numoutlets" : 1,
					"fontsize" : 12.0
				}

			}
, 			{
				"box" : 				{
					"maxclass" : "newobj",
					"text" : "scale 0. 1. -3.14 3.14",
					"outlettype" : [ "float" ],
					"fontname" : "Arial",
					"id" : "obj-39",
					"patching_rect" : [ 695.0, 538.0, 123.0, 20.0 ],
					"numinlets" : 6,
					"numoutlets" : 1,
					"fontsize" : 12.0
				}

			}
, 			{
				"box" : 				{
					"maxclass" : "newobj",
					"text" : "+ 0.",
					"outlettype" : [ "float" ],
					"fontname" : "Arial",
					"id" : "obj-30",
					"patching_rect" : [ 889.0, 512.0, 32.5, 20.0 ],
					"numinlets" : 2,
					"numoutlets" : 1,
					"fontsize" : 12.0
				}

			}
, 			{
				"box" : 				{
					"maxclass" : "newobj",
					"text" : "cos",
					"outlettype" : [ "float" ],
					"fontname" : "Arial",
					"id" : "obj-28",
					"patching_rect" : [ 936.0, 559.0, 29.0, 20.0 ],
					"numinlets" : 1,
					"numoutlets" : 1,
					"fontsize" : 12.0
				}

			}
, 			{
				"box" : 				{
					"maxclass" : "newobj",
					"text" : "* 127.",
					"outlettype" : [ "float" ],
					"fontname" : "Arial",
					"id" : "obj-29",
					"patching_rect" : [ 936.0, 582.0, 42.0, 20.0 ],
					"numinlets" : 2,
					"numoutlets" : 1,
					"fontsize" : 12.0
				}

			}
, 			{
				"box" : 				{
					"maxclass" : "newobj",
					"text" : "cos",
					"outlettype" : [ "float" ],
					"fontname" : "Arial",
					"id" : "obj-24",
					"patching_rect" : [ 695.0, 561.0, 29.0, 20.0 ],
					"numinlets" : 1,
					"numoutlets" : 1,
					"fontsize" : 12.0
				}

			}
, 			{
				"box" : 				{
					"maxclass" : "newobj",
					"text" : "* 127.",
					"outlettype" : [ "float" ],
					"fontname" : "Arial",
					"id" : "obj-23",
					"patching_rect" : [ 695.0, 582.0, 42.0, 20.0 ],
					"numinlets" : 2,
					"numoutlets" : 1,
					"fontsize" : 12.0
				}

			}
, 			{
				"box" : 				{
					"maxclass" : "pictslider",
					"outlettype" : [ "int", "int" ],
					"presentation_rect" : [ 4.0, 183.0, 222.0, 222.0 ],
					"movehorizontal" : 0,
					"leftvalue" : -127,
					"id" : "obj-14",
					"patching_rect" : [ 608.0, 756.0, 383.0, 383.0 ],
					"numinlets" : 2,
					"presentation" : 1,
					"movevertical" : 0,
					"invisiblebkgnd" : 1,
					"numoutlets" : 2,
					"bottomvalue" : -127
				}

			}
, 			{
				"box" : 				{
					"maxclass" : "toggle",
					"outlettype" : [ "int" ],
					"id" : "obj-12",
					"patching_rect" : [ 703.0, 285.0, 20.0, 20.0 ],
					"numinlets" : 1,
					"numoutlets" : 1
				}

			}
, 			{
				"box" : 				{
					"maxclass" : "newobj",
					"text" : "metro 1000",
					"outlettype" : [ "bang" ],
					"fontname" : "Arial",
					"id" : "obj-11",
					"patching_rect" : [ 720.0, 317.0, 71.0, 20.0 ],
					"numinlets" : 2,
					"numoutlets" : 1,
					"fontsize" : 12.0
				}

			}
, 			{
				"box" : 				{
					"maxclass" : "message",
					"text" : "0., 1. $1",
					"outlettype" : [ "" ],
					"fontname" : "Arial",
					"id" : "obj-10",
					"patching_rect" : [ 720.0, 360.0, 54.0, 18.0 ],
					"numinlets" : 2,
					"numoutlets" : 1,
					"fontsize" : 12.0
				}

			}
, 			{
				"box" : 				{
					"maxclass" : "newobj",
					"text" : "line 0. 100.",
					"outlettype" : [ "", "", "" ],
					"fontname" : "Arial",
					"id" : "obj-9",
					"patching_rect" : [ 720.0, 382.0, 69.0, 20.0 ],
					"numinlets" : 3,
					"numoutlets" : 3,
					"fontsize" : 12.0
				}

			}
, 			{
				"box" : 				{
					"maxclass" : "inlet",
					"outlettype" : [ "" ],
					"id" : "obj-3",
					"patching_rect" : [ 740.0, 19.0, 25.0, 25.0 ],
					"numinlets" : 0,
					"numoutlets" : 1,
					"comment" : ""
				}

			}
, 			{
				"box" : 				{
					"maxclass" : "inlet",
					"outlettype" : [ "" ],
					"id" : "obj-2",
					"patching_rect" : [ 685.0, 19.0, 25.0, 25.0 ],
					"numinlets" : 0,
					"numoutlets" : 1,
					"comment" : ""
				}

			}
, 			{
				"box" : 				{
					"maxclass" : "inlet",
					"outlettype" : [ "" ],
					"id" : "obj-1",
					"patching_rect" : [ 640.0, 19.0, 25.0, 25.0 ],
					"numinlets" : 0,
					"numoutlets" : 1,
					"comment" : ""
				}

			}
, 			{
				"box" : 				{
					"maxclass" : "textedit",
					"varname" : "NameText",
					"text" : "Tri",
					"outlettype" : [ "", "int", "" ],
					"presentation_rect" : [ 4.0, 409.75, 228.0, 36.5 ],
					"fontname" : "Arial",
					"id" : "obj-188",
					"patching_rect" : [ 370.0, 257.0, 131.0, 39.0 ],
					"numinlets" : 1,
					"presentation" : 1,
					"numoutlets" : 3,
					"keymode" : 1,
					"fontsize" : 24.0
				}

			}
, 			{
				"box" : 				{
					"maxclass" : "message",
					"text" : "3",
					"outlettype" : [ "" ],
					"fontname" : "Arial",
					"id" : "obj-187",
					"patching_rect" : [ 76.0, 290.0, 43.0, 18.0 ],
					"numinlets" : 2,
					"numoutlets" : 1,
					"fontsize" : 12.0
				}

			}
, 			{
				"box" : 				{
					"maxclass" : "outlet",
					"id" : "obj-180",
					"patching_rect" : [ 512.0, 721.0, 25.0, 25.0 ],
					"numinlets" : 1,
					"numoutlets" : 0,
					"comment" : ""
				}

			}
, 			{
				"box" : 				{
					"maxclass" : "outlet",
					"id" : "obj-179",
					"patching_rect" : [ 447.0, 721.0, 25.0, 25.0 ],
					"numinlets" : 1,
					"numoutlets" : 0,
					"comment" : ""
				}

			}
, 			{
				"box" : 				{
					"maxclass" : "number",
					"outlettype" : [ "int", "bang" ],
					"presentation_rect" : [ 4.0, 447.783386, 91.0, 37.0 ],
					"fontname" : "Arial",
					"id" : "obj-175",
					"patching_rect" : [ 115.0, 65.0, 74.0, 37.0 ],
					"numinlets" : 1,
					"presentation" : 1,
					"numoutlets" : 2,
					"fontsize" : 26.204781
				}

			}
, 			{
				"box" : 				{
					"maxclass" : "number",
					"outlettype" : [ "int", "bang" ],
					"presentation_rect" : [ 4.0, 485.783386, 91.0, 37.0 ],
					"fontname" : "Arial",
					"id" : "obj-174",
					"patching_rect" : [ 100.0, 178.0, 74.0, 37.0 ],
					"numinlets" : 1,
					"presentation" : 1,
					"numoutlets" : 2,
					"fontsize" : 26.204781
				}

			}
, 			{
				"box" : 				{
					"maxclass" : "newobj",
					"text" : "change 0.",
					"outlettype" : [ "", "int", "int" ],
					"fontname" : "Arial",
					"id" : "obj-21",
					"patching_rect" : [ 512.0, 690.0, 63.0, 20.0 ],
					"numinlets" : 1,
					"numoutlets" : 3,
					"fontsize" : 12.0
				}

			}
, 			{
				"box" : 				{
					"maxclass" : "newobj",
					"text" : "change 0.",
					"outlettype" : [ "", "int", "int" ],
					"fontname" : "Arial",
					"id" : "obj-20",
					"patching_rect" : [ 447.0, 690.0, 63.0, 20.0 ],
					"numinlets" : 1,
					"numoutlets" : 3,
					"fontsize" : 12.0
				}

			}
, 			{
				"box" : 				{
					"maxclass" : "inlet",
					"outlettype" : [ "" ],
					"id" : "obj-36",
					"patching_rect" : [ 107.0, 3.0, 25.0, 25.0 ],
					"numinlets" : 0,
					"numoutlets" : 1,
					"comment" : ""
				}

			}
, 			{
				"box" : 				{
					"maxclass" : "panel",
					"bgcolor" : [ 0.501961, 0.717647, 0.764706, 1.0 ],
					"presentation_rect" : [ 4.0, 180.0, 228.0, 228.0 ],
					"border" : 3,
					"id" : "obj-207",
					"patching_rect" : [ 605.0, 753.0, 389.0, 389.0 ],
					"numinlets" : 1,
					"presentation" : 1,
					"rounded" : 6,
					"numoutlets" : 0
				}

			}
, 			{
				"box" : 				{
					"maxclass" : "message",
					"text" : "storagewindow 1",
					"outlettype" : [ "" ],
					"fontname" : "Arial",
					"id" : "obj-38",
					"patching_rect" : [ 411.0, 526.0, 101.0, 18.0 ],
					"numinlets" : 2,
					"numoutlets" : 1,
					"fontsize" : 12.0
				}

			}
 ],
		"lines" : [ 			{
				"patchline" : 				{
					"source" : [ "obj-9", 0 ],
					"destination" : [ "obj-84", 1 ],
					"hidden" : 0,
					"midpoints" : [  ]
				}

			}
, 			{
				"patchline" : 				{
					"source" : [ "obj-10", 0 ],
					"destination" : [ "obj-9", 0 ],
					"hidden" : 0,
					"midpoints" : [  ]
				}

			}
, 			{
				"patchline" : 				{
					"source" : [ "obj-34", 1 ],
					"destination" : [ "obj-45", 0 ],
					"hidden" : 0,
					"midpoints" : [  ]
				}

			}
, 			{
				"patchline" : 				{
					"source" : [ "obj-45", 0 ],
					"destination" : [ "obj-215", 0 ],
					"hidden" : 0,
					"midpoints" : [  ]
				}

			}
, 			{
				"patchline" : 				{
					"source" : [ "obj-44", 4 ],
					"destination" : [ "obj-74", 0 ],
					"hidden" : 0,
					"midpoints" : [  ]
				}

			}
, 			{
				"patchline" : 				{
					"source" : [ "obj-44", 2 ],
					"destination" : [ "obj-49", 0 ],
					"hidden" : 0,
					"midpoints" : [  ]
				}

			}
, 			{
				"patchline" : 				{
					"source" : [ "obj-44", 1 ],
					"destination" : [ "obj-47", 0 ],
					"hidden" : 0,
					"midpoints" : [  ]
				}

			}
, 			{
				"patchline" : 				{
					"source" : [ "obj-44", 0 ],
					"destination" : [ "obj-46", 0 ],
					"hidden" : 0,
					"midpoints" : [  ]
				}

			}
, 			{
				"patchline" : 				{
					"source" : [ "obj-46", 0 ],
					"destination" : [ "obj-80", 0 ],
					"hidden" : 0,
					"midpoints" : [  ]
				}

			}
, 			{
				"patchline" : 				{
					"source" : [ "obj-47", 0 ],
					"destination" : [ "obj-80", 0 ],
					"hidden" : 0,
					"midpoints" : [  ]
				}

			}
, 			{
				"patchline" : 				{
					"source" : [ "obj-48", 0 ],
					"destination" : [ "obj-80", 0 ],
					"hidden" : 0,
					"midpoints" : [  ]
				}

			}
, 			{
				"patchline" : 				{
					"source" : [ "obj-49", 0 ],
					"destination" : [ "obj-48", 0 ],
					"hidden" : 0,
					"midpoints" : [  ]
				}

			}
, 			{
				"patchline" : 				{
					"source" : [ "obj-72", 0 ],
					"destination" : [ "obj-32", 1 ],
					"hidden" : 0,
					"midpoints" : [  ]
				}

			}
, 			{
				"patchline" : 				{
					"source" : [ "obj-71", 0 ],
					"destination" : [ "obj-73", 0 ],
					"hidden" : 0,
					"midpoints" : [  ]
				}

			}
, 			{
				"patchline" : 				{
					"source" : [ "obj-77", 0 ],
					"destination" : [ "obj-71", 0 ],
					"hidden" : 0,
					"midpoints" : [  ]
				}

			}
, 			{
				"patchline" : 				{
					"source" : [ "obj-42", 0 ],
					"destination" : [ "obj-187", 1 ],
					"hidden" : 0,
					"midpoints" : [  ]
				}

			}
, 			{
				"patchline" : 				{
					"source" : [ "obj-174", 0 ],
					"destination" : [ "obj-42", 0 ],
					"hidden" : 0,
					"midpoints" : [  ]
				}

			}
, 			{
				"patchline" : 				{
					"source" : [ "obj-175", 0 ],
					"destination" : [ "obj-174", 0 ],
					"hidden" : 0,
					"midpoints" : [  ]
				}

			}
, 			{
				"patchline" : 				{
					"source" : [ "obj-35", 0 ],
					"destination" : [ "obj-217", 1 ],
					"hidden" : 0,
					"midpoints" : [  ]
				}

			}
, 			{
				"patchline" : 				{
					"source" : [ "obj-175", 0 ],
					"destination" : [ "obj-35", 0 ],
					"hidden" : 0,
					"midpoints" : [  ]
				}

			}
, 			{
				"patchline" : 				{
					"source" : [ "obj-154", 0 ],
					"destination" : [ "obj-40", 0 ],
					"hidden" : 0,
					"midpoints" : [  ]
				}

			}
, 			{
				"patchline" : 				{
					"source" : [ "obj-40", 0 ],
					"destination" : [ "obj-194", 2 ],
					"hidden" : 0,
					"midpoints" : [  ]
				}

			}
, 			{
				"patchline" : 				{
					"source" : [ "obj-40", 0 ],
					"destination" : [ "obj-194", 1 ],
					"hidden" : 0,
					"midpoints" : [  ]
				}

			}
, 			{
				"patchline" : 				{
					"source" : [ "obj-40", 1 ],
					"destination" : [ "obj-84", 0 ],
					"hidden" : 0,
					"midpoints" : [  ]
				}

			}
, 			{
				"patchline" : 				{
					"source" : [ "obj-187", 0 ],
					"destination" : [ "obj-33", 0 ],
					"hidden" : 0,
					"midpoints" : [  ]
				}

			}
, 			{
				"patchline" : 				{
					"source" : [ "obj-68", 0 ],
					"destination" : [ "obj-75", 0 ],
					"hidden" : 0,
					"midpoints" : [  ]
				}

			}
, 			{
				"patchline" : 				{
					"source" : [ "obj-98", 0 ],
					"destination" : [ "obj-68", 0 ],
					"hidden" : 0,
					"midpoints" : [  ]
				}

			}
, 			{
				"patchline" : 				{
					"source" : [ "obj-25", 1 ],
					"destination" : [ "obj-98", 0 ],
					"hidden" : 0,
					"midpoints" : [  ]
				}

			}
, 			{
				"patchline" : 				{
					"source" : [ "obj-122", 0 ],
					"destination" : [ "obj-25", 0 ],
					"hidden" : 0,
					"midpoints" : [  ]
				}

			}
, 			{
				"patchline" : 				{
					"source" : [ "obj-19", 0 ],
					"destination" : [ "obj-18", 0 ],
					"hidden" : 0,
					"midpoints" : [  ]
				}

			}
, 			{
				"patchline" : 				{
					"source" : [ "obj-19", 1 ],
					"destination" : [ "obj-18", 1 ],
					"hidden" : 0,
					"midpoints" : [  ]
				}

			}
, 			{
				"patchline" : 				{
					"source" : [ "obj-18", 0 ],
					"destination" : [ "obj-194", 2 ],
					"hidden" : 0,
					"midpoints" : [  ]
				}

			}
, 			{
				"patchline" : 				{
					"source" : [ "obj-29", 0 ],
					"destination" : [ "obj-18", 0 ],
					"hidden" : 0,
					"midpoints" : [  ]
				}

			}
, 			{
				"patchline" : 				{
					"source" : [ "obj-194", 1 ],
					"destination" : [ "obj-14", 1 ],
					"hidden" : 0,
					"midpoints" : [  ]
				}

			}
, 			{
				"patchline" : 				{
					"source" : [ "obj-194", 0 ],
					"destination" : [ "obj-14", 0 ],
					"hidden" : 0,
					"midpoints" : [  ]
				}

			}
, 			{
				"patchline" : 				{
					"source" : [ "obj-17", 0 ],
					"destination" : [ "obj-217", 0 ],
					"hidden" : 0,
					"midpoints" : [  ]
				}

			}
, 			{
				"patchline" : 				{
					"source" : [ "obj-17", 1 ],
					"destination" : [ "obj-175", 0 ],
					"hidden" : 0,
					"midpoints" : [  ]
				}

			}
, 			{
				"patchline" : 				{
					"source" : [ "obj-36", 0 ],
					"destination" : [ "obj-17", 0 ],
					"hidden" : 0,
					"midpoints" : [  ]
				}

			}
, 			{
				"patchline" : 				{
					"source" : [ "obj-216", 0 ],
					"destination" : [ "obj-217", 0 ],
					"hidden" : 0,
					"midpoints" : [  ]
				}

			}
, 			{
				"patchline" : 				{
					"source" : [ "obj-211", 0 ],
					"destination" : [ "obj-205", 0 ],
					"hidden" : 0,
					"midpoints" : [  ]
				}

			}
, 			{
				"patchline" : 				{
					"source" : [ "obj-191", 0 ],
					"destination" : [ "obj-95", 0 ],
					"hidden" : 0,
					"midpoints" : [  ]
				}

			}
, 			{
				"patchline" : 				{
					"source" : [ "obj-191", 0 ],
					"destination" : [ "obj-96", 0 ],
					"hidden" : 0,
					"midpoints" : [  ]
				}

			}
, 			{
				"patchline" : 				{
					"source" : [ "obj-20", 0 ],
					"destination" : [ "obj-208", 0 ],
					"hidden" : 0,
					"midpoints" : [  ]
				}

			}
, 			{
				"patchline" : 				{
					"source" : [ "obj-204", 0 ],
					"destination" : [ "obj-55", 1 ],
					"hidden" : 0,
					"midpoints" : [  ]
				}

			}
, 			{
				"patchline" : 				{
					"source" : [ "obj-204", 0 ],
					"destination" : [ "obj-30", 1 ],
					"hidden" : 0,
					"midpoints" : [  ]
				}

			}
, 			{
				"patchline" : 				{
					"source" : [ "obj-194", 1 ],
					"destination" : [ "obj-21", 0 ],
					"hidden" : 0,
					"midpoints" : [  ]
				}

			}
, 			{
				"patchline" : 				{
					"source" : [ "obj-194", 0 ],
					"destination" : [ "obj-20", 0 ],
					"hidden" : 0,
					"midpoints" : [  ]
				}

			}
, 			{
				"patchline" : 				{
					"source" : [ "obj-202", 0 ],
					"destination" : [ "obj-108", 0 ],
					"hidden" : 0,
					"midpoints" : [  ]
				}

			}
, 			{
				"patchline" : 				{
					"source" : [ "obj-37", 0 ],
					"destination" : [ "obj-115", 0 ],
					"hidden" : 0,
					"midpoints" : [  ]
				}

			}
, 			{
				"patchline" : 				{
					"source" : [ "obj-155", 0 ],
					"destination" : [ "obj-204", 0 ],
					"hidden" : 0,
					"midpoints" : [  ]
				}

			}
, 			{
				"patchline" : 				{
					"source" : [ "obj-205", 0 ],
					"destination" : [ "obj-204", 0 ],
					"hidden" : 0,
					"midpoints" : [  ]
				}

			}
, 			{
				"patchline" : 				{
					"source" : [ "obj-199", 0 ],
					"destination" : [ "obj-200", 0 ],
					"hidden" : 0,
					"midpoints" : [  ]
				}

			}
, 			{
				"patchline" : 				{
					"source" : [ "obj-200", 1 ],
					"destination" : [ "obj-197", 0 ],
					"hidden" : 0,
					"midpoints" : [  ]
				}

			}
, 			{
				"patchline" : 				{
					"source" : [ "obj-200", 0 ],
					"destination" : [ "obj-195", 0 ],
					"hidden" : 0,
					"midpoints" : [  ]
				}

			}
, 			{
				"patchline" : 				{
					"source" : [ "obj-198", 0 ],
					"destination" : [ "obj-195", 0 ],
					"hidden" : 0,
					"midpoints" : [  ]
				}

			}
, 			{
				"patchline" : 				{
					"source" : [ "obj-197", 0 ],
					"destination" : [ "obj-194", 0 ],
					"hidden" : 0,
					"midpoints" : [  ]
				}

			}
, 			{
				"patchline" : 				{
					"source" : [ "obj-23", 0 ],
					"destination" : [ "obj-194", 1 ],
					"hidden" : 0,
					"midpoints" : [  ]
				}

			}
, 			{
				"patchline" : 				{
					"source" : [ "obj-195", 0 ],
					"destination" : [ "obj-194", 0 ],
					"hidden" : 0,
					"midpoints" : [  ]
				}

			}
, 			{
				"patchline" : 				{
					"source" : [ "obj-66", 0 ],
					"destination" : [ "obj-29", 0 ],
					"hidden" : 0,
					"midpoints" : [  ]
				}

			}
, 			{
				"patchline" : 				{
					"source" : [ "obj-67", 0 ],
					"destination" : [ "obj-23", 0 ],
					"hidden" : 0,
					"midpoints" : [  ]
				}

			}
, 			{
				"patchline" : 				{
					"source" : [ "obj-190", 1 ],
					"destination" : [ "obj-191", 0 ],
					"hidden" : 0,
					"midpoints" : [  ]
				}

			}
, 			{
				"patchline" : 				{
					"source" : [ "obj-24", 0 ],
					"destination" : [ "obj-23", 0 ],
					"hidden" : 0,
					"midpoints" : [  ]
				}

			}
, 			{
				"patchline" : 				{
					"source" : [ "obj-140", 0 ],
					"destination" : [ "obj-11", 0 ],
					"hidden" : 0,
					"midpoints" : [  ]
				}

			}
, 			{
				"patchline" : 				{
					"source" : [ "obj-3", 0 ],
					"destination" : [ "obj-136", 0 ],
					"hidden" : 0,
					"midpoints" : [  ]
				}

			}
, 			{
				"patchline" : 				{
					"source" : [ "obj-2", 0 ],
					"destination" : [ "obj-135", 0 ],
					"hidden" : 0,
					"midpoints" : [  ]
				}

			}
, 			{
				"patchline" : 				{
					"source" : [ "obj-1", 0 ],
					"destination" : [ "obj-122", 0 ],
					"hidden" : 0,
					"midpoints" : [  ]
				}

			}
, 			{
				"patchline" : 				{
					"source" : [ "obj-136", 0 ],
					"destination" : [ "obj-119", 0 ],
					"hidden" : 0,
					"midpoints" : [  ]
				}

			}
, 			{
				"patchline" : 				{
					"source" : [ "obj-135", 0 ],
					"destination" : [ "obj-99", 0 ],
					"hidden" : 0,
					"midpoints" : [  ]
				}

			}
, 			{
				"patchline" : 				{
					"source" : [ "obj-99", 0 ],
					"destination" : [ "obj-78", 1 ],
					"hidden" : 0,
					"midpoints" : [  ]
				}

			}
, 			{
				"patchline" : 				{
					"source" : [ "obj-99", 0 ],
					"destination" : [ "obj-85", 1 ],
					"hidden" : 0,
					"midpoints" : [  ]
				}

			}
, 			{
				"patchline" : 				{
					"source" : [ "obj-95", 0 ],
					"destination" : [ "obj-41", 4 ],
					"hidden" : 0,
					"midpoints" : [  ]
				}

			}
, 			{
				"patchline" : 				{
					"source" : [ "obj-96", 0 ],
					"destination" : [ "obj-41", 3 ],
					"hidden" : 0,
					"midpoints" : [  ]
				}

			}
, 			{
				"patchline" : 				{
					"source" : [ "obj-75", 0 ],
					"destination" : [ "obj-11", 0 ],
					"hidden" : 0,
					"midpoints" : [  ]
				}

			}
, 			{
				"patchline" : 				{
					"source" : [ "obj-75", 1 ],
					"destination" : [ "obj-11", 1 ],
					"hidden" : 0,
					"midpoints" : [  ]
				}

			}
, 			{
				"patchline" : 				{
					"source" : [ "obj-75", 2 ],
					"destination" : [ "obj-81", 1 ],
					"hidden" : 0,
					"midpoints" : [  ]
				}

			}
, 			{
				"patchline" : 				{
					"source" : [ "obj-96", 0 ],
					"destination" : [ "obj-52", 3 ],
					"hidden" : 0,
					"midpoints" : [  ]
				}

			}
, 			{
				"patchline" : 				{
					"source" : [ "obj-95", 0 ],
					"destination" : [ "obj-52", 4 ],
					"hidden" : 0,
					"midpoints" : [  ]
				}

			}
, 			{
				"patchline" : 				{
					"source" : [ "obj-39", 0 ],
					"destination" : [ "obj-24", 0 ],
					"hidden" : 0,
					"midpoints" : [  ]
				}

			}
, 			{
				"patchline" : 				{
					"source" : [ "obj-28", 0 ],
					"destination" : [ "obj-29", 0 ],
					"hidden" : 0,
					"midpoints" : [  ]
				}

			}
, 			{
				"patchline" : 				{
					"source" : [ "obj-41", 0 ],
					"destination" : [ "obj-28", 0 ],
					"hidden" : 0,
					"midpoints" : [  ]
				}

			}
, 			{
				"patchline" : 				{
					"source" : [ "obj-53", 0 ],
					"destination" : [ "obj-58", 0 ],
					"hidden" : 0,
					"midpoints" : [  ]
				}

			}
, 			{
				"patchline" : 				{
					"source" : [ "obj-58", 0 ],
					"destination" : [ "obj-60", 0 ],
					"hidden" : 0,
					"midpoints" : [  ]
				}

			}
, 			{
				"patchline" : 				{
					"source" : [ "obj-52", 0 ],
					"destination" : [ "obj-56", 0 ],
					"hidden" : 0,
					"midpoints" : [  ]
				}

			}
, 			{
				"patchline" : 				{
					"source" : [ "obj-56", 0 ],
					"destination" : [ "obj-63", 0 ],
					"hidden" : 0,
					"midpoints" : [  ]
				}

			}
, 			{
				"patchline" : 				{
					"source" : [ "obj-63", 0 ],
					"destination" : [ "obj-66", 0 ],
					"hidden" : 0,
					"midpoints" : [  ]
				}

			}
, 			{
				"patchline" : 				{
					"source" : [ "obj-60", 0 ],
					"destination" : [ "obj-67", 0 ],
					"hidden" : 0,
					"midpoints" : [  ]
				}

			}
, 			{
				"patchline" : 				{
					"source" : [ "obj-84", 1 ],
					"destination" : [ "obj-85", 0 ],
					"hidden" : 0,
					"midpoints" : [  ]
				}

			}
, 			{
				"patchline" : 				{
					"source" : [ "obj-84", 0 ],
					"destination" : [ "obj-78", 0 ],
					"hidden" : 0,
					"midpoints" : [  ]
				}

			}
, 			{
				"patchline" : 				{
					"source" : [ "obj-85", 0 ],
					"destination" : [ "obj-55", 0 ],
					"hidden" : 0,
					"midpoints" : [  ]
				}

			}
, 			{
				"patchline" : 				{
					"source" : [ "obj-85", 0 ],
					"destination" : [ "obj-53", 0 ],
					"hidden" : 0,
					"midpoints" : [  ]
				}

			}
, 			{
				"patchline" : 				{
					"source" : [ "obj-11", 0 ],
					"destination" : [ "obj-81", 0 ],
					"hidden" : 0,
					"midpoints" : [  ]
				}

			}
, 			{
				"patchline" : 				{
					"source" : [ "obj-81", 0 ],
					"destination" : [ "obj-10", 0 ],
					"hidden" : 0,
					"midpoints" : [  ]
				}

			}
, 			{
				"patchline" : 				{
					"source" : [ "obj-78", 0 ],
					"destination" : [ "obj-30", 0 ],
					"hidden" : 0,
					"midpoints" : [  ]
				}

			}
, 			{
				"patchline" : 				{
					"source" : [ "obj-78", 0 ],
					"destination" : [ "obj-39", 0 ],
					"hidden" : 0,
					"midpoints" : [  ]
				}

			}
, 			{
				"patchline" : 				{
					"source" : [ "obj-55", 0 ],
					"destination" : [ "obj-52", 0 ],
					"hidden" : 0,
					"midpoints" : [  ]
				}

			}
, 			{
				"patchline" : 				{
					"source" : [ "obj-30", 0 ],
					"destination" : [ "obj-41", 0 ],
					"hidden" : 0,
					"midpoints" : [  ]
				}

			}
, 			{
				"patchline" : 				{
					"source" : [ "obj-12", 0 ],
					"destination" : [ "obj-11", 0 ],
					"hidden" : 0,
					"midpoints" : [  ]
				}

			}
, 			{
				"patchline" : 				{
					"source" : [ "obj-20", 0 ],
					"destination" : [ "obj-179", 0 ],
					"hidden" : 0,
					"midpoints" : [  ]
				}

			}
, 			{
				"patchline" : 				{
					"source" : [ "obj-21", 0 ],
					"destination" : [ "obj-180", 0 ],
					"hidden" : 0,
					"midpoints" : [  ]
				}

			}
, 			{
				"patchline" : 				{
					"source" : [ "obj-7", 0 ],
					"destination" : [ "obj-8", 0 ],
					"hidden" : 0,
					"midpoints" : [  ]
				}

			}
, 			{
				"patchline" : 				{
					"source" : [ "obj-7", 1 ],
					"destination" : [ "obj-13", 0 ],
					"hidden" : 0,
					"midpoints" : [  ]
				}

			}
, 			{
				"patchline" : 				{
					"source" : [ "obj-106", 0 ],
					"destination" : [ "obj-23", 1 ],
					"hidden" : 0,
					"midpoints" : [  ]
				}

			}
, 			{
				"patchline" : 				{
					"source" : [ "obj-119", 0 ],
					"destination" : [ "obj-106", 0 ],
					"hidden" : 0,
					"midpoints" : [  ]
				}

			}
, 			{
				"patchline" : 				{
					"source" : [ "obj-115", 1 ],
					"destination" : [ "obj-106", 1 ],
					"hidden" : 0,
					"midpoints" : [  ]
				}

			}
, 			{
				"patchline" : 				{
					"source" : [ "obj-115", 0 ],
					"destination" : [ "obj-106", 0 ],
					"hidden" : 0,
					"midpoints" : [  ]
				}

			}
, 			{
				"patchline" : 				{
					"source" : [ "obj-119", 0 ],
					"destination" : [ "obj-107", 0 ],
					"hidden" : 0,
					"midpoints" : [  ]
				}

			}
, 			{
				"patchline" : 				{
					"source" : [ "obj-107", 0 ],
					"destination" : [ "obj-29", 1 ],
					"hidden" : 0,
					"midpoints" : [  ]
				}

			}
, 			{
				"patchline" : 				{
					"source" : [ "obj-108", 1 ],
					"destination" : [ "obj-107", 1 ],
					"hidden" : 0,
					"midpoints" : [  ]
				}

			}
, 			{
				"patchline" : 				{
					"source" : [ "obj-108", 0 ],
					"destination" : [ "obj-107", 0 ],
					"hidden" : 0,
					"midpoints" : [  ]
				}

			}
, 			{
				"patchline" : 				{
					"source" : [ "obj-4", 0 ],
					"destination" : [ "obj-7", 0 ],
					"hidden" : 0,
					"midpoints" : [  ]
				}

			}
, 			{
				"patchline" : 				{
					"source" : [ "obj-8", 0 ],
					"destination" : [ "obj-19", 0 ],
					"hidden" : 0,
					"midpoints" : [  ]
				}

			}
, 			{
				"patchline" : 				{
					"source" : [ "obj-13", 0 ],
					"destination" : [ "obj-19", 0 ],
					"hidden" : 0,
					"midpoints" : [  ]
				}

			}
, 			{
				"patchline" : 				{
					"source" : [ "obj-75", 2 ],
					"destination" : [ "obj-26", 0 ],
					"hidden" : 0,
					"midpoints" : [  ]
				}

			}
, 			{
				"patchline" : 				{
					"source" : [ "obj-98", 0 ],
					"destination" : [ "obj-27", 0 ],
					"hidden" : 0,
					"midpoints" : [  ]
				}

			}
, 			{
				"patchline" : 				{
					"source" : [ "obj-5", 0 ],
					"destination" : [ "obj-38", 0 ],
					"hidden" : 0,
					"midpoints" : [  ]
				}

			}
, 			{
				"patchline" : 				{
					"source" : [ "obj-73", 0 ],
					"destination" : [ "obj-72", 0 ],
					"hidden" : 0,
					"midpoints" : [  ]
				}

			}
, 			{
				"patchline" : 				{
					"source" : [ "obj-76", 0 ],
					"destination" : [ "obj-111", 0 ],
					"hidden" : 0,
					"midpoints" : [  ]
				}

			}
, 			{
				"patchline" : 				{
					"source" : [ "obj-74", 0 ],
					"destination" : [ "obj-76", 0 ],
					"hidden" : 0,
					"midpoints" : [  ]
				}

			}
, 			{
				"patchline" : 				{
					"source" : [ "obj-74", 0 ],
					"destination" : [ "obj-77", 0 ],
					"hidden" : 0,
					"midpoints" : [  ]
				}

			}
, 			{
				"patchline" : 				{
					"source" : [ "obj-111", 0 ],
					"destination" : [ "obj-72", 0 ],
					"hidden" : 0,
					"midpoints" : [  ]
				}

			}
, 			{
				"patchline" : 				{
					"source" : [ "obj-72", 0 ],
					"destination" : [ "obj-80", 0 ],
					"hidden" : 0,
					"midpoints" : [  ]
				}

			}
, 			{
				"patchline" : 				{
					"source" : [ "obj-43", 0 ],
					"destination" : [ "obj-31", 0 ],
					"hidden" : 0,
					"midpoints" : [  ]
				}

			}
, 			{
				"patchline" : 				{
					"source" : [ "obj-6", 0 ],
					"destination" : [ "obj-31", 0 ],
					"hidden" : 0,
					"midpoints" : [  ]
				}

			}
, 			{
				"patchline" : 				{
					"source" : [ "obj-38", 0 ],
					"destination" : [ "obj-31", 0 ],
					"hidden" : 0,
					"midpoints" : [  ]
				}

			}
, 			{
				"patchline" : 				{
					"source" : [ "obj-217", 0 ],
					"destination" : [ "obj-31", 0 ],
					"hidden" : 0,
					"midpoints" : [  ]
				}

			}
, 			{
				"patchline" : 				{
					"source" : [ "obj-33", 0 ],
					"destination" : [ "obj-31", 0 ],
					"hidden" : 0,
					"midpoints" : [  ]
				}

			}
, 			{
				"patchline" : 				{
					"source" : [ "obj-31", 0 ],
					"destination" : [ "obj-44", 0 ],
					"hidden" : 0,
					"midpoints" : [  ]
				}

			}
, 			{
				"patchline" : 				{
					"source" : [ "obj-215", 0 ],
					"destination" : [ "obj-51", 0 ],
					"hidden" : 0,
					"midpoints" : [  ]
				}

			}
, 			{
				"patchline" : 				{
					"source" : [ "obj-51", 1 ],
					"destination" : [ "obj-187", 0 ],
					"hidden" : 0,
					"midpoints" : [  ]
				}

			}
, 			{
				"patchline" : 				{
					"source" : [ "obj-51", 0 ],
					"destination" : [ "obj-50", 0 ],
					"hidden" : 0,
					"midpoints" : [  ]
				}

			}
 ]
	}

}
